<svg xmlns="http://www.w3.org/2000/svg" width="128" height="128" viewBox="0 0 128 128"><defs><style>.a{fill:#fff;}</style></defs><rect class="a" width="128" height="128"/><rect x="2.98" y="2.98" width="2.98" height="2.98"/><rect x="5.95" y="2.98" width="2.98" height="2.98"/><rect x="8.93" y="2.98" width="2.98" height="2.98"/><rect x="11.91" y="2.98" width="2.98" height="2.98"/><rect x="14.88" y="2.98" width="2.98" height="2.98"/><rect x="17.86" y="2.98" width="2.98" height="2.98"/><rect x="20.84" y="2.98" width="2.98" height="2.98"/><rect x="26.79" y="2.98" width="2.98" height="2.98"/><rect x="32.74" y="2.98" width="2.98" height="2.98"/><rect x="35.72" y="2.98" width="2.98" height="2.98"/><rect x="38.7" y="2.98" width="2.98" height="2.98"/><rect x="47.63" y="2.98" width="2.98" height="2.98"/><rect x="50.6" y="2.98" width="2.98" height="2.98"/><rect x="53.58" y="2.98" width="2.98" height="2.98"/><rect x="56.56" y="2.98" width="2.98" height="2.98"/><rect x="62.51" y="2.98" width="2.98" height="2.98"/><rect x="68.47" y="2.98" width="2.98" height="2.98"/><rect x="74.42" y="2.98" width="2.98" height="2.98"/><rect x="77.4" y="2.98" width="2.98" height="2.98"/><rect x="80.37" y="2.98" width="2.98" height="2.98"/><rect x="83.35" y="2.98" width="2.98" height="2.98"/><rect x="89.3" y="2.98" width="2.98" height="2.98"/><rect x="104.19" y="2.98" width="2.98" height="2.98"/><rect x="107.16" y="2.98" width="2.98" height="2.98"/><rect x="110.14" y="2.98" width="2.98" height="2.98"/><rect x="113.12" y="2.98" width="2.98" height="2.98"/><rect x="116.09" y="2.98" width="2.98" height="2.98"/><rect x="119.07" y="2.98" width="2.98" height="2.98"/><rect x="122.05" y="2.98" width="2.98" height="2.98"/><rect x="2.98" y="5.95" width="2.98" height="2.98"/><rect x="20.84" y="5.95" width="2.98" height="2.98"/><rect x="47.63" y="5.95" width="2.98" height="2.98"/><rect x="59.53" y="5.95" width="2.98" height="2.98"/><rect x="62.51" y="5.95" width="2.98" height="2.98"/><rect x="68.47" y="5.95" width="2.98" height="2.98"/><rect x="80.37" y="5.95" width="2.98" height="2.98"/><rect x="83.35" y="5.95" width="2.98" height="2.98"/><rect x="86.33" y="5.95" width="2.98" height="2.98"/><rect x="89.3" y="5.95" width="2.98" height="2.98"/><rect x="92.28" y="5.95" width="2.98" height="2.98"/><rect x="95.26" y="5.95" width="2.98" height="2.98"/><rect x="98.23" y="5.95" width="2.98" height="2.98"/><rect x="104.19" y="5.95" width="2.98" height="2.98"/><rect x="122.05" y="5.95" width="2.98" height="2.98"/><rect x="2.98" y="8.93" width="2.98" height="2.98"/><rect x="8.93" y="8.93" width="2.98" height="2.98"/><rect x="11.91" y="8.93" width="2.98" height="2.98"/><rect x="14.88" y="8.93" width="2.98" height="2.98"/><rect x="20.84" y="8.93" width="2.98" height="2.98"/><rect x="32.74" y="8.93" width="2.98" height="2.98"/><rect x="35.72" y="8.93" width="2.98" height="2.98"/><rect x="41.67" y="8.93" width="2.98" height="2.98"/><rect x="44.65" y="8.93" width="2.98" height="2.98"/><rect x="50.6" y="8.93" width="2.98" height="2.98"/><rect x="53.58" y="8.93" width="2.98" height="2.98"/><rect x="56.56" y="8.93" width="2.98" height="2.98"/><rect x="59.53" y="8.93" width="2.98" height="2.98"/><rect x="62.51" y="8.93" width="2.98" height="2.98"/><rect x="65.49" y="8.93" width="2.98" height="2.98"/><rect x="68.47" y="8.93" width="2.98" height="2.98"/><rect x="71.44" y="8.93" width="2.98" height="2.98"/><rect x="74.42" y="8.93" width="2.98" height="2.98"/><rect x="77.4" y="8.93" width="2.98" height="2.98"/><rect x="80.37" y="8.93" width="2.98" height="2.98"/><rect x="83.35" y="8.93" width="2.98" height="2.98"/><rect x="86.33" y="8.93" width="2.98" height="2.98"/><rect x="95.26" y="8.93" width="2.98" height="2.98"/><rect x="104.19" y="8.93" width="2.98" height="2.98"/><rect x="110.14" y="8.93" width="2.98" height="2.98"/><rect x="113.12" y="8.93" width="2.98" height="2.98"/><rect x="116.09" y="8.93" width="2.98" height="2.98"/><rect x="122.05" y="8.93" width="2.98" height="2.98"/><rect x="2.98" y="11.91" width="2.98" height="2.98"/><rect x="8.93" y="11.91" width="2.98" height="2.98"/><rect x="11.91" y="11.91" width="2.98" height="2.98"/><rect x="14.88" y="11.91" width="2.98" height="2.98"/><rect x="20.84" y="11.91" width="2.98" height="2.98"/><rect x="26.79" y="11.91" width="2.98" height="2.98"/><rect x="29.77" y="11.91" width="2.98" height="2.98"/><rect x="32.74" y="11.91" width="2.98" height="2.98"/><rect x="41.67" y="11.91" width="2.98" height="2.98"/><rect x="53.58" y="11.91" width="2.98" height="2.98"/><rect x="56.56" y="11.91" width="2.98" height="2.98"/><rect x="77.4" y="11.91" width="2.98" height="2.98"/><rect x="80.37" y="11.91" width="2.98" height="2.98"/><rect x="83.35" y="11.91" width="2.98" height="2.98"/><rect x="86.33" y="11.91" width="2.98" height="2.98"/><rect x="89.3" y="11.91" width="2.98" height="2.98"/><rect x="104.19" y="11.91" width="2.98" height="2.98"/><rect x="110.14" y="11.91" width="2.98" height="2.98"/><rect x="113.12" y="11.91" width="2.98" height="2.98"/><rect x="116.09" y="11.91" width="2.98" height="2.98"/><rect x="122.05" y="11.91" width="2.98" height="2.98"/><rect x="2.98" y="14.88" width="2.98" height="2.98"/><rect x="8.93" y="14.88" width="2.98" height="2.98"/><rect x="11.91" y="14.88" width="2.98" height="2.98"/><rect x="14.88" y="14.88" width="2.98" height="2.98"/><rect x="20.84" y="14.88" width="2.98" height="2.98"/><rect x="29.77" y="14.88" width="2.98" height="2.98"/><rect x="35.72" y="14.88" width="2.98" height="2.98"/><rect x="53.58" y="14.88" width="2.98" height="2.98"/><rect x="68.47" y="14.88" width="2.98" height="2.98"/><rect x="71.44" y="14.88" width="2.98" height="2.98"/><rect x="77.4" y="14.88" width="2.98" height="2.98"/><rect x="80.37" y="14.88" width="2.98" height="2.98"/><rect x="83.35" y="14.88" width="2.98" height="2.98"/><rect x="92.28" y="14.88" width="2.98" height="2.98"/><rect x="95.26" y="14.88" width="2.98" height="2.98"/><rect x="98.23" y="14.88" width="2.98" height="2.98"/><rect x="104.19" y="14.88" width="2.98" height="2.98"/><rect x="110.14" y="14.88" width="2.98" height="2.98"/><rect x="113.12" y="14.88" width="2.98" height="2.98"/><rect x="116.09" y="14.88" width="2.98" height="2.98"/><rect x="122.05" y="14.88" width="2.98" height="2.98"/><rect x="2.98" y="17.86" width="2.98" height="2.98"/><rect x="20.84" y="17.86" width="2.98" height="2.98"/><rect x="29.77" y="17.86" width="2.98" height="2.98"/><rect x="32.74" y="17.86" width="2.98" height="2.98"/><rect x="38.7" y="17.86" width="2.98" height="2.98"/><rect x="50.6" y="17.86" width="2.98" height="2.98"/><rect x="53.58" y="17.86" width="2.98" height="2.98"/><rect x="65.49" y="17.86" width="2.98" height="2.98"/><rect x="68.47" y="17.86" width="2.98" height="2.98"/><rect x="71.44" y="17.86" width="2.98" height="2.98"/><rect x="74.42" y="17.86" width="2.98" height="2.98"/><rect x="77.4" y="17.86" width="2.98" height="2.98"/><rect x="80.37" y="17.86" width="2.98" height="2.98"/><rect x="83.35" y="17.86" width="2.98" height="2.98"/><rect x="92.28" y="17.86" width="2.98" height="2.98"/><rect x="95.26" y="17.86" width="2.98" height="2.98"/><rect x="98.23" y="17.86" width="2.98" height="2.98"/><rect x="104.19" y="17.86" width="2.98" height="2.98"/><rect x="122.05" y="17.86" width="2.98" height="2.98"/><rect x="2.98" y="20.84" width="2.98" height="2.98"/><rect x="5.95" y="20.84" width="2.98" height="2.98"/><rect x="8.93" y="20.84" width="2.98" height="2.98"/><rect x="11.91" y="20.84" width="2.98" height="2.98"/><rect x="14.88" y="20.84" width="2.98" height="2.98"/><rect x="17.86" y="20.84" width="2.98" height="2.98"/><rect x="20.84" y="20.84" width="2.98" height="2.98"/><rect x="26.79" y="20.84" width="2.98" height="2.98"/><rect x="32.74" y="20.84" width="2.98" height="2.98"/><rect x="38.7" y="20.84" width="2.98" height="2.98"/><rect x="44.65" y="20.84" width="2.98" height="2.98"/><rect x="50.6" y="20.84" width="2.98" height="2.98"/><rect x="56.56" y="20.84" width="2.98" height="2.98"/><rect x="62.51" y="20.84" width="2.98" height="2.98"/><rect x="68.47" y="20.84" width="2.98" height="2.98"/><rect x="74.42" y="20.84" width="2.98" height="2.98"/><rect x="80.37" y="20.84" width="2.98" height="2.98"/><rect x="86.33" y="20.84" width="2.98" height="2.98"/><rect x="92.28" y="20.84" width="2.98" height="2.98"/><rect x="98.23" y="20.84" width="2.98" height="2.98"/><rect x="104.19" y="20.84" width="2.98" height="2.98"/><rect x="107.16" y="20.84" width="2.98" height="2.98"/><rect x="110.14" y="20.84" width="2.98" height="2.98"/><rect x="113.12" y="20.84" width="2.98" height="2.98"/><rect x="116.09" y="20.84" width="2.98" height="2.98"/><rect x="119.07" y="20.84" width="2.98" height="2.98"/><rect x="122.05" y="20.84" width="2.98" height="2.98"/><rect x="32.74" y="23.81" width="2.98" height="2.98"/><rect x="35.72" y="23.81" width="2.98" height="2.98"/><rect x="44.65" y="23.81" width="2.98" height="2.98"/><rect x="47.63" y="23.81" width="2.98" height="2.98"/><rect x="50.6" y="23.81" width="2.98" height="2.98"/><rect x="62.51" y="23.81" width="2.98" height="2.98"/><rect x="65.49" y="23.81" width="2.98" height="2.98"/><rect x="68.47" y="23.81" width="2.98" height="2.98"/><rect x="77.4" y="23.81" width="2.98" height="2.98"/><rect x="80.37" y="23.81" width="2.98" height="2.98"/><rect x="83.35" y="23.81" width="2.98" height="2.98"/><rect x="86.33" y="23.81" width="2.98" height="2.98"/><rect x="89.3" y="23.81" width="2.98" height="2.98"/><rect x="98.23" y="23.81" width="2.98" height="2.98"/><rect x="8.93" y="26.79" width="2.98" height="2.98"/><rect x="14.88" y="26.79" width="2.98" height="2.98"/><rect x="17.86" y="26.79" width="2.98" height="2.98"/><rect x="20.84" y="26.79" width="2.98" height="2.98"/><rect x="26.79" y="26.79" width="2.98" height="2.98"/><rect x="35.72" y="26.79" width="2.98" height="2.98"/><rect x="41.67" y="26.79" width="2.98" height="2.98"/><rect x="47.63" y="26.79" width="2.98" height="2.98"/><rect x="53.58" y="26.79" width="2.98" height="2.98"/><rect x="56.56" y="26.79" width="2.98" height="2.98"/><rect x="59.53" y="26.79" width="2.98" height="2.98"/><rect x="62.51" y="26.79" width="2.98" height="2.98"/><rect x="65.49" y="26.79" width="2.98" height="2.98"/><rect x="68.47" y="26.79" width="2.98" height="2.98"/><rect x="71.44" y="26.79" width="2.98" height="2.98"/><rect x="77.4" y="26.79" width="2.98" height="2.98"/><rect x="80.37" y="26.79" width="2.98" height="2.98"/><rect x="83.35" y="26.79" width="2.98" height="2.98"/><rect x="86.33" y="26.79" width="2.98" height="2.98"/><rect x="89.3" y="26.79" width="2.98" height="2.98"/><rect x="92.28" y="26.79" width="2.98" height="2.98"/><rect x="95.26" y="26.79" width="2.98" height="2.98"/><rect x="98.23" y="26.79" width="2.98" height="2.98"/><rect x="101.21" y="26.79" width="2.98" height="2.98"/><rect x="113.12" y="26.79" width="2.98" height="2.98"/><rect x="122.05" y="26.79" width="2.98" height="2.98"/><rect x="5.95" y="29.77" width="2.98" height="2.98"/><rect x="8.93" y="29.77" width="2.98" height="2.98"/><rect x="26.79" y="29.77" width="2.98" height="2.98"/><rect x="29.77" y="29.77" width="2.98" height="2.98"/><rect x="32.74" y="29.77" width="2.98" height="2.98"/><rect x="38.7" y="29.77" width="2.98" height="2.98"/><rect x="41.67" y="29.77" width="2.98" height="2.98"/><rect x="47.63" y="29.77" width="2.98" height="2.98"/><rect x="56.56" y="29.77" width="2.98" height="2.98"/><rect x="59.53" y="29.77" width="2.98" height="2.98"/><rect x="62.51" y="29.77" width="2.98" height="2.98"/><rect x="65.49" y="29.77" width="2.98" height="2.98"/><rect x="71.44" y="29.77" width="2.98" height="2.98"/><rect x="77.4" y="29.77" width="2.98" height="2.98"/><rect x="83.35" y="29.77" width="2.98" height="2.98"/><rect x="86.33" y="29.77" width="2.98" height="2.98"/><rect x="92.28" y="29.77" width="2.98" height="2.98"/><rect x="98.23" y="29.77" width="2.98" height="2.98"/><rect x="101.21" y="29.77" width="2.98" height="2.98"/><rect x="5.95" y="32.74" width="2.98" height="2.98"/><rect x="8.93" y="32.74" width="2.98" height="2.98"/><rect x="11.91" y="32.74" width="2.98" height="2.98"/><rect x="14.88" y="32.74" width="2.98" height="2.98"/><rect x="17.86" y="32.74" width="2.98" height="2.98"/><rect x="20.84" y="32.74" width="2.98" height="2.98"/><rect x="26.79" y="32.74" width="2.98" height="2.98"/><rect x="29.77" y="32.74" width="2.98" height="2.98"/><rect x="35.72" y="32.74" width="2.98" height="2.98"/><rect x="38.7" y="32.74" width="2.98" height="2.98"/><rect x="44.65" y="32.74" width="2.98" height="2.98"/><rect x="56.56" y="32.74" width="2.98" height="2.98"/><rect x="59.53" y="32.74" width="2.98" height="2.98"/><rect x="62.51" y="32.74" width="2.98" height="2.98"/><rect x="65.49" y="32.74" width="2.98" height="2.98"/><rect x="74.42" y="32.74" width="2.98" height="2.98"/><rect x="77.4" y="32.74" width="2.98" height="2.98"/><rect x="98.23" y="32.74" width="2.98" height="2.98"/><rect x="104.19" y="32.74" width="2.98" height="2.98"/><rect x="113.12" y="32.74" width="2.98" height="2.98"/><rect x="119.07" y="32.74" width="2.98" height="2.98"/><rect x="122.05" y="32.74" width="2.98" height="2.98"/><rect x="14.88" y="35.72" width="2.98" height="2.98"/><rect x="26.79" y="35.72" width="2.98" height="2.98"/><rect x="29.77" y="35.72" width="2.98" height="2.98"/><rect x="35.72" y="35.72" width="2.98" height="2.98"/><rect x="38.7" y="35.72" width="2.98" height="2.98"/><rect x="44.65" y="35.72" width="2.98" height="2.98"/><rect x="53.58" y="35.72" width="2.98" height="2.98"/><rect x="59.53" y="35.72" width="2.98" height="2.98"/><rect x="62.51" y="35.72" width="2.98" height="2.98"/><rect x="65.49" y="35.72" width="2.98" height="2.98"/><rect x="68.47" y="35.72" width="2.98" height="2.98"/><rect x="74.42" y="35.72" width="2.98" height="2.98"/><rect x="83.35" y="35.72" width="2.98" height="2.98"/><rect x="89.3" y="35.72" width="2.98" height="2.98"/><rect x="92.28" y="35.72" width="2.98" height="2.98"/><rect x="101.21" y="35.72" width="2.98" height="2.98"/><rect x="11.91" y="38.7" width="2.98" height="2.98"/><rect x="20.84" y="38.7" width="2.98" height="2.98"/><rect x="23.81" y="38.7" width="2.98" height="2.98"/><rect x="41.67" y="38.7" width="2.98" height="2.98"/><rect x="53.58" y="38.7" width="2.98" height="2.98"/><rect x="56.56" y="38.7" width="2.98" height="2.98"/><rect x="59.53" y="38.7" width="2.98" height="2.98"/><rect x="65.49" y="38.7" width="2.98" height="2.98"/><rect x="68.47" y="38.7" width="2.98" height="2.98"/><rect x="77.4" y="38.7" width="2.98" height="2.98"/><rect x="83.35" y="38.7" width="2.98" height="2.98"/><rect x="98.23" y="38.7" width="2.98" height="2.98"/><rect x="101.21" y="38.7" width="2.98" height="2.98"/><rect x="104.19" y="38.7" width="2.98" height="2.98"/><rect x="113.12" y="38.7" width="2.98" height="2.98"/><rect x="119.07" y="38.7" width="2.98" height="2.98"/><rect x="122.05" y="38.7" width="2.98" height="2.98"/><rect x="11.91" y="41.67" width="2.98" height="2.98"/><rect x="14.88" y="41.67" width="2.98" height="2.98"/><rect x="17.86" y="41.67" width="2.98" height="2.98"/><rect x="26.79" y="41.67" width="2.98" height="2.98"/><rect x="38.7" y="41.67" width="2.98" height="2.98"/><rect x="41.67" y="41.67" width="2.98" height="2.98"/><rect x="53.58" y="41.67" width="2.98" height="2.98"/><rect x="56.56" y="41.67" width="2.98" height="2.98"/><rect x="68.47" y="41.67" width="2.98" height="2.98"/><rect x="71.44" y="41.67" width="2.98" height="2.98"/><rect x="74.42" y="41.67" width="2.98" height="2.98"/><rect x="80.37" y="41.67" width="2.98" height="2.98"/><rect x="83.35" y="41.67" width="2.98" height="2.98"/><rect x="95.26" y="41.67" width="2.98" height="2.98"/><rect x="98.23" y="41.67" width="2.98" height="2.98"/><rect x="101.21" y="41.67" width="2.98" height="2.98"/><rect x="104.19" y="41.67" width="2.98" height="2.98"/><rect x="113.12" y="41.67" width="2.98" height="2.98"/><rect x="116.09" y="41.67" width="2.98" height="2.98"/><rect x="5.95" y="44.65" width="2.98" height="2.98"/><rect x="8.93" y="44.65" width="2.98" height="2.98"/><rect x="14.88" y="44.65" width="2.98" height="2.98"/><rect x="20.84" y="44.65" width="2.98" height="2.98"/><rect x="32.74" y="44.65" width="2.98" height="2.98"/><rect x="35.72" y="44.65" width="2.98" height="2.98"/><rect x="44.65" y="44.65" width="2.98" height="2.98"/><rect x="50.6" y="44.65" width="2.98" height="2.98"/><rect x="59.53" y="44.65" width="2.98" height="2.98"/><rect x="65.49" y="44.65" width="2.98" height="2.98"/><rect x="68.47" y="44.65" width="2.98" height="2.98"/><rect x="71.44" y="44.65" width="2.98" height="2.98"/><rect x="74.42" y="44.65" width="2.98" height="2.98"/><rect x="80.37" y="44.65" width="2.98" height="2.98"/><rect x="92.28" y="44.65" width="2.98" height="2.98"/><rect x="98.23" y="44.65" width="2.98" height="2.98"/><rect x="101.21" y="44.65" width="2.98" height="2.98"/><rect x="110.14" y="44.65" width="2.98" height="2.98"/><rect x="119.07" y="44.65" width="2.98" height="2.98"/><rect x="122.05" y="44.65" width="2.98" height="2.98"/><rect x="2.98" y="47.63" width="2.98" height="2.98"/><rect x="8.93" y="47.63" width="2.98" height="2.98"/><rect x="17.86" y="47.63" width="2.98" height="2.98"/><rect x="29.77" y="47.63" width="2.98" height="2.98"/><rect x="32.74" y="47.63" width="2.98" height="2.98"/><rect x="38.7" y="47.63" width="2.98" height="2.98"/><rect x="41.67" y="47.63" width="2.98" height="2.98"/><rect x="50.6" y="47.63" width="2.98" height="2.98"/><rect x="53.58" y="47.63" width="2.98" height="2.98"/><rect x="59.53" y="47.63" width="2.98" height="2.98"/><rect x="68.47" y="47.63" width="2.98" height="2.98"/><rect x="74.42" y="47.63" width="2.98" height="2.98"/><rect x="77.4" y="47.63" width="2.98" height="2.98"/><rect x="83.35" y="47.63" width="2.98" height="2.98"/><rect x="89.3" y="47.63" width="2.98" height="2.98"/><rect x="95.26" y="47.63" width="2.98" height="2.98"/><rect x="104.19" y="47.63" width="2.98" height="2.98"/><rect x="107.16" y="47.63" width="2.98" height="2.98"/><rect x="119.07" y="47.63" width="2.98" height="2.98"/><rect x="122.05" y="47.63" width="2.98" height="2.98"/><rect x="2.98" y="50.6" width="2.98" height="2.98"/><rect x="5.95" y="50.6" width="2.98" height="2.98"/><rect x="8.93" y="50.6" width="2.98" height="2.98"/><rect x="11.91" y="50.6" width="2.98" height="2.98"/><rect x="20.84" y="50.6" width="2.98" height="2.98"/><rect x="29.77" y="50.6" width="2.98" height="2.98"/><rect x="35.72" y="50.6" width="2.98" height="2.98"/><rect x="38.7" y="50.6" width="2.98" height="2.98"/><rect x="41.67" y="50.6" width="2.98" height="2.98"/><rect x="50.6" y="50.6" width="2.98" height="2.98"/><rect x="56.56" y="50.6" width="2.98" height="2.98"/><rect x="59.53" y="50.6" width="2.98" height="2.98"/><rect x="74.42" y="50.6" width="2.98" height="2.98"/><rect x="80.37" y="50.6" width="2.98" height="2.98"/><rect x="86.33" y="50.6" width="2.98" height="2.98"/><rect x="89.3" y="50.6" width="2.98" height="2.98"/><rect x="95.26" y="50.6" width="2.98" height="2.98"/><rect x="98.23" y="50.6" width="2.98" height="2.98"/><rect x="104.19" y="50.6" width="2.98" height="2.98"/><rect x="113.12" y="50.6" width="2.98" height="2.98"/><rect x="116.09" y="50.6" width="2.98" height="2.98"/><rect x="119.07" y="50.6" width="2.98" height="2.98"/><rect x="122.05" y="50.6" width="2.98" height="2.98"/><rect x="2.98" y="53.58" width="2.98" height="2.98"/><rect x="8.93" y="53.58" width="2.98" height="2.98"/><rect x="26.79" y="53.58" width="2.98" height="2.98"/><rect x="38.7" y="53.58" width="2.98" height="2.98"/><rect x="41.67" y="53.58" width="2.98" height="2.98"/><rect x="44.65" y="53.58" width="2.98" height="2.98"/><rect x="47.63" y="53.58" width="2.98" height="2.98"/><rect x="53.58" y="53.58" width="2.98" height="2.98"/><rect x="59.53" y="53.58" width="2.98" height="2.98"/><rect x="71.44" y="53.58" width="2.98" height="2.98"/><rect x="83.35" y="53.58" width="2.98" height="2.98"/><rect x="86.33" y="53.58" width="2.98" height="2.98"/><rect x="98.23" y="53.58" width="2.98" height="2.98"/><rect x="101.21" y="53.58" width="2.98" height="2.98"/><rect x="104.19" y="53.58" width="2.98" height="2.98"/><rect x="107.16" y="53.58" width="2.98" height="2.98"/><rect x="113.12" y="53.58" width="2.98" height="2.98"/><rect x="2.98" y="56.56" width="2.98" height="2.98"/><rect x="11.91" y="56.56" width="2.98" height="2.98"/><rect x="14.88" y="56.56" width="2.98" height="2.98"/><rect x="17.86" y="56.56" width="2.98" height="2.98"/><rect x="20.84" y="56.56" width="2.98" height="2.98"/><rect x="26.79" y="56.56" width="2.98" height="2.98"/><rect x="32.74" y="56.56" width="2.98" height="2.98"/><rect x="38.7" y="56.56" width="2.98" height="2.98"/><rect x="41.67" y="56.56" width="2.98" height="2.98"/><rect x="44.65" y="56.56" width="2.98" height="2.98"/><rect x="47.63" y="56.56" width="2.98" height="2.98"/><rect x="50.6" y="56.56" width="2.98" height="2.98"/><rect x="53.58" y="56.56" width="2.98" height="2.98"/><rect x="56.56" y="56.56" width="2.98" height="2.98"/><rect x="59.53" y="56.56" width="2.98" height="2.98"/><rect x="65.49" y="56.56" width="2.98" height="2.98"/><rect x="68.47" y="56.56" width="2.98" height="2.98"/><rect x="71.44" y="56.56" width="2.98" height="2.98"/><rect x="74.42" y="56.56" width="2.98" height="2.98"/><rect x="80.37" y="56.56" width="2.98" height="2.98"/><rect x="89.3" y="56.56" width="2.98" height="2.98"/><rect x="98.23" y="56.56" width="2.98" height="2.98"/><rect x="101.21" y="56.56" width="2.98" height="2.98"/><rect x="113.12" y="56.56" width="2.98" height="2.98"/><rect x="116.09" y="56.56" width="2.98" height="2.98"/><rect x="119.07" y="56.56" width="2.98" height="2.98"/><rect x="122.05" y="56.56" width="2.98" height="2.98"/><rect x="8.93" y="59.53" width="2.98" height="2.98"/><rect x="11.91" y="59.53" width="2.98" height="2.98"/><rect x="14.88" y="59.53" width="2.98" height="2.98"/><rect x="17.86" y="59.53" width="2.98" height="2.98"/><rect x="23.81" y="59.53" width="2.98" height="2.98"/><rect x="29.77" y="59.53" width="2.98" height="2.98"/><rect x="38.7" y="59.53" width="2.98" height="2.98"/><rect x="41.67" y="59.53" width="2.98" height="2.98"/><rect x="50.6" y="59.53" width="2.98" height="2.98"/><rect x="59.53" y="59.53" width="2.98" height="2.98"/><rect x="62.51" y="59.53" width="2.98" height="2.98"/><rect x="77.4" y="59.53" width="2.98" height="2.98"/><rect x="83.35" y="59.53" width="2.98" height="2.98"/><rect x="86.33" y="59.53" width="2.98" height="2.98"/><rect x="95.26" y="59.53" width="2.98" height="2.98"/><rect x="101.21" y="59.53" width="2.98" height="2.98"/><rect x="107.16" y="59.53" width="2.98" height="2.98"/><rect x="110.14" y="59.53" width="2.98" height="2.98"/><rect x="119.07" y="59.53" width="2.98" height="2.98"/><rect x="122.05" y="59.53" width="2.98" height="2.98"/><rect x="8.93" y="62.51" width="2.98" height="2.98"/><rect x="14.88" y="62.51" width="2.98" height="2.98"/><rect x="17.86" y="62.51" width="2.98" height="2.98"/><rect x="20.84" y="62.51" width="2.98" height="2.98"/><rect x="26.79" y="62.51" width="2.98" height="2.98"/><rect x="29.77" y="62.51" width="2.98" height="2.98"/><rect x="35.72" y="62.51" width="2.98" height="2.98"/><rect x="50.6" y="62.51" width="2.98" height="2.98"/><rect x="56.56" y="62.51" width="2.98" height="2.98"/><rect x="65.49" y="62.51" width="2.98" height="2.98"/><rect x="68.47" y="62.51" width="2.98" height="2.98"/><rect x="71.44" y="62.51" width="2.98" height="2.98"/><rect x="77.4" y="62.51" width="2.98" height="2.98"/><rect x="80.37" y="62.51" width="2.98" height="2.98"/><rect x="83.35" y="62.51" width="2.98" height="2.98"/><rect x="86.33" y="62.51" width="2.98" height="2.98"/><rect x="95.26" y="62.51" width="2.98" height="2.98"/><rect x="98.23" y="62.51" width="2.98" height="2.98"/><rect x="101.21" y="62.51" width="2.98" height="2.98"/><rect x="104.19" y="62.51" width="2.98" height="2.98"/><rect x="107.16" y="62.51" width="2.98" height="2.98"/><rect x="110.14" y="62.51" width="2.98" height="2.98"/><rect x="113.12" y="62.51" width="2.98" height="2.98"/><rect x="122.05" y="62.51" width="2.98" height="2.98"/><rect x="5.95" y="65.49" width="2.98" height="2.98"/><rect x="8.93" y="65.49" width="2.98" height="2.98"/><rect x="14.88" y="65.49" width="2.98" height="2.98"/><rect x="26.79" y="65.49" width="2.98" height="2.98"/><rect x="32.74" y="65.49" width="2.98" height="2.98"/><rect x="35.72" y="65.49" width="2.98" height="2.98"/><rect x="44.65" y="65.49" width="2.98" height="2.98"/><rect x="47.63" y="65.49" width="2.98" height="2.98"/><rect x="59.53" y="65.49" width="2.98" height="2.98"/><rect x="83.35" y="65.49" width="2.98" height="2.98"/><rect x="86.33" y="65.49" width="2.98" height="2.98"/><rect x="89.3" y="65.49" width="2.98" height="2.98"/><rect x="95.26" y="65.49" width="2.98" height="2.98"/><rect x="98.23" y="65.49" width="2.98" height="2.98"/><rect x="101.21" y="65.49" width="2.98" height="2.98"/><rect x="104.19" y="65.49" width="2.98" height="2.98"/><rect x="113.12" y="65.49" width="2.98" height="2.98"/><rect x="122.05" y="65.49" width="2.98" height="2.98"/><rect x="2.98" y="68.47" width="2.98" height="2.98"/><rect x="5.95" y="68.47" width="2.98" height="2.98"/><rect x="8.93" y="68.47" width="2.98" height="2.98"/><rect x="11.91" y="68.47" width="2.98" height="2.98"/><rect x="14.88" y="68.47" width="2.98" height="2.98"/><rect x="20.84" y="68.47" width="2.98" height="2.98"/><rect x="29.77" y="68.47" width="2.98" height="2.98"/><rect x="35.72" y="68.47" width="2.98" height="2.98"/><rect x="41.67" y="68.47" width="2.98" height="2.98"/><rect x="47.63" y="68.47" width="2.98" height="2.98"/><rect x="50.6" y="68.47" width="2.98" height="2.98"/><rect x="53.58" y="68.47" width="2.98" height="2.98"/><rect x="56.56" y="68.47" width="2.98" height="2.98"/><rect x="59.53" y="68.47" width="2.98" height="2.98"/><rect x="62.51" y="68.47" width="2.98" height="2.98"/><rect x="65.49" y="68.47" width="2.98" height="2.98"/><rect x="68.47" y="68.47" width="2.98" height="2.98"/><rect x="71.44" y="68.47" width="2.98" height="2.98"/><rect x="80.37" y="68.47" width="2.98" height="2.98"/><rect x="92.28" y="68.47" width="2.98" height="2.98"/><rect x="101.21" y="68.47" width="2.98" height="2.98"/><rect x="116.09" y="68.47" width="2.98" height="2.98"/><rect x="119.07" y="68.47" width="2.98" height="2.98"/><rect x="122.05" y="68.47" width="2.98" height="2.98"/><rect x="8.93" y="71.44" width="2.98" height="2.98"/><rect x="11.91" y="71.44" width="2.98" height="2.98"/><rect x="17.86" y="71.44" width="2.98" height="2.98"/><rect x="23.81" y="71.44" width="2.98" height="2.98"/><rect x="26.79" y="71.44" width="2.98" height="2.98"/><rect x="29.77" y="71.44" width="2.98" height="2.98"/><rect x="32.74" y="71.44" width="2.98" height="2.98"/><rect x="35.72" y="71.44" width="2.98" height="2.98"/><rect x="47.63" y="71.44" width="2.98" height="2.98"/><rect x="50.6" y="71.44" width="2.98" height="2.98"/><rect x="53.58" y="71.44" width="2.98" height="2.98"/><rect x="59.53" y="71.44" width="2.98" height="2.98"/><rect x="68.47" y="71.44" width="2.98" height="2.98"/><rect x="86.33" y="71.44" width="2.98" height="2.98"/><rect x="89.3" y="71.44" width="2.98" height="2.98"/><rect x="98.23" y="71.44" width="2.98" height="2.98"/><rect x="101.21" y="71.44" width="2.98" height="2.98"/><rect x="104.19" y="71.44" width="2.98" height="2.98"/><rect x="5.95" y="74.42" width="2.98" height="2.98"/><rect x="11.91" y="74.42" width="2.98" height="2.98"/><rect x="17.86" y="74.42" width="2.98" height="2.98"/><rect x="20.84" y="74.42" width="2.98" height="2.98"/><rect x="23.81" y="74.42" width="2.98" height="2.98"/><rect x="26.79" y="74.42" width="2.98" height="2.98"/><rect x="29.77" y="74.42" width="2.98" height="2.98"/><rect x="32.74" y="74.42" width="2.98" height="2.98"/><rect x="38.7" y="74.42" width="2.98" height="2.98"/><rect x="41.67" y="74.42" width="2.98" height="2.98"/><rect x="44.65" y="74.42" width="2.98" height="2.98"/><rect x="47.63" y="74.42" width="2.98" height="2.98"/><rect x="50.6" y="74.42" width="2.98" height="2.98"/><rect x="59.53" y="74.42" width="2.98" height="2.98"/><rect x="62.51" y="74.42" width="2.98" height="2.98"/><rect x="71.44" y="74.42" width="2.98" height="2.98"/><rect x="86.33" y="74.42" width="2.98" height="2.98"/><rect x="89.3" y="74.42" width="2.98" height="2.98"/><rect x="104.19" y="74.42" width="2.98" height="2.98"/><rect x="107.16" y="74.42" width="2.98" height="2.98"/><rect x="110.14" y="74.42" width="2.98" height="2.98"/><rect x="113.12" y="74.42" width="2.98" height="2.98"/><rect x="119.07" y="74.42" width="2.98" height="2.98"/><rect x="122.05" y="74.42" width="2.98" height="2.98"/><rect x="2.98" y="77.4" width="2.98" height="2.98"/><rect x="17.86" y="77.4" width="2.98" height="2.98"/><rect x="29.77" y="77.4" width="2.98" height="2.98"/><rect x="32.74" y="77.4" width="2.98" height="2.98"/><rect x="41.67" y="77.4" width="2.98" height="2.98"/><rect x="44.65" y="77.4" width="2.98" height="2.98"/><rect x="47.63" y="77.4" width="2.98" height="2.98"/><rect x="50.6" y="77.4" width="2.98" height="2.98"/><rect x="53.58" y="77.4" width="2.98" height="2.98"/><rect x="56.56" y="77.4" width="2.98" height="2.98"/><rect x="62.51" y="77.4" width="2.98" height="2.98"/><rect x="71.44" y="77.4" width="2.98" height="2.98"/><rect x="74.42" y="77.4" width="2.98" height="2.98"/><rect x="77.4" y="77.4" width="2.98" height="2.98"/><rect x="80.37" y="77.4" width="2.98" height="2.98"/><rect x="86.33" y="77.4" width="2.98" height="2.98"/><rect x="89.3" y="77.4" width="2.98" height="2.98"/><rect x="104.19" y="77.4" width="2.98" height="2.98"/><rect x="113.12" y="77.4" width="2.98" height="2.98"/><rect x="116.09" y="77.4" width="2.98" height="2.98"/><rect x="119.07" y="77.4" width="2.98" height="2.98"/><rect x="8.93" y="80.37" width="2.98" height="2.98"/><rect x="11.91" y="80.37" width="2.98" height="2.98"/><rect x="17.86" y="80.37" width="2.98" height="2.98"/><rect x="20.84" y="80.37" width="2.98" height="2.98"/><rect x="26.79" y="80.37" width="2.98" height="2.98"/><rect x="29.77" y="80.37" width="2.98" height="2.98"/><rect x="38.7" y="80.37" width="2.98" height="2.98"/><rect x="41.67" y="80.37" width="2.98" height="2.98"/><rect x="44.65" y="80.37" width="2.98" height="2.98"/><rect x="56.56" y="80.37" width="2.98" height="2.98"/><rect x="59.53" y="80.37" width="2.98" height="2.98"/><rect x="65.49" y="80.37" width="2.98" height="2.98"/><rect x="71.44" y="80.37" width="2.98" height="2.98"/><rect x="77.4" y="80.37" width="2.98" height="2.98"/><rect x="80.37" y="80.37" width="2.98" height="2.98"/><rect x="89.3" y="80.37" width="2.98" height="2.98"/><rect x="98.23" y="80.37" width="2.98" height="2.98"/><rect x="101.21" y="80.37" width="2.98" height="2.98"/><rect x="116.09" y="80.37" width="2.98" height="2.98"/><rect x="119.07" y="80.37" width="2.98" height="2.98"/><rect x="122.05" y="80.37" width="2.98" height="2.98"/><rect x="11.91" y="83.35" width="2.98" height="2.98"/><rect x="17.86" y="83.35" width="2.98" height="2.98"/><rect x="26.79" y="83.35" width="2.98" height="2.98"/><rect x="32.74" y="83.35" width="2.98" height="2.98"/><rect x="38.7" y="83.35" width="2.98" height="2.98"/><rect x="44.65" y="83.35" width="2.98" height="2.98"/><rect x="53.58" y="83.35" width="2.98" height="2.98"/><rect x="56.56" y="83.35" width="2.98" height="2.98"/><rect x="59.53" y="83.35" width="2.98" height="2.98"/><rect x="68.47" y="83.35" width="2.98" height="2.98"/><rect x="71.44" y="83.35" width="2.98" height="2.98"/><rect x="80.37" y="83.35" width="2.98" height="2.98"/><rect x="83.35" y="83.35" width="2.98" height="2.98"/><rect x="89.3" y="83.35" width="2.98" height="2.98"/><rect x="92.28" y="83.35" width="2.98" height="2.98"/><rect x="98.23" y="83.35" width="2.98" height="2.98"/><rect x="101.21" y="83.35" width="2.98" height="2.98"/><rect x="107.16" y="83.35" width="2.98" height="2.98"/><rect x="110.14" y="83.35" width="2.98" height="2.98"/><rect x="5.95" y="86.33" width="2.98" height="2.98"/><rect x="11.91" y="86.33" width="2.98" height="2.98"/><rect x="14.88" y="86.33" width="2.98" height="2.98"/><rect x="20.84" y="86.33" width="2.98" height="2.98"/><rect x="29.77" y="86.33" width="2.98" height="2.98"/><rect x="41.67" y="86.33" width="2.98" height="2.98"/><rect x="50.6" y="86.33" width="2.98" height="2.98"/><rect x="53.58" y="86.33" width="2.98" height="2.98"/><rect x="56.56" y="86.33" width="2.98" height="2.98"/><rect x="59.53" y="86.33" width="2.98" height="2.98"/><rect x="62.51" y="86.33" width="2.98" height="2.98"/><rect x="74.42" y="86.33" width="2.98" height="2.98"/><rect x="86.33" y="86.33" width="2.98" height="2.98"/><rect x="89.3" y="86.33" width="2.98" height="2.98"/><rect x="98.23" y="86.33" width="2.98" height="2.98"/><rect x="101.21" y="86.33" width="2.98" height="2.98"/><rect x="104.19" y="86.33" width="2.98" height="2.98"/><rect x="107.16" y="86.33" width="2.98" height="2.98"/><rect x="113.12" y="86.33" width="2.98" height="2.98"/><rect x="122.05" y="86.33" width="2.98" height="2.98"/><rect x="5.95" y="89.3" width="2.98" height="2.98"/><rect x="8.93" y="89.3" width="2.98" height="2.98"/><rect x="23.81" y="89.3" width="2.98" height="2.98"/><rect x="44.65" y="89.3" width="2.98" height="2.98"/><rect x="47.63" y="89.3" width="2.98" height="2.98"/><rect x="50.6" y="89.3" width="2.98" height="2.98"/><rect x="53.58" y="89.3" width="2.98" height="2.98"/><rect x="56.56" y="89.3" width="2.98" height="2.98"/><rect x="59.53" y="89.3" width="2.98" height="2.98"/><rect x="62.51" y="89.3" width="2.98" height="2.98"/><rect x="65.49" y="89.3" width="2.98" height="2.98"/><rect x="71.44" y="89.3" width="2.98" height="2.98"/><rect x="74.42" y="89.3" width="2.98" height="2.98"/><rect x="80.37" y="89.3" width="2.98" height="2.98"/><rect x="83.35" y="89.3" width="2.98" height="2.98"/><rect x="86.33" y="89.3" width="2.98" height="2.98"/><rect x="89.3" y="89.3" width="2.98" height="2.98"/><rect x="98.23" y="89.3" width="2.98" height="2.98"/><rect x="101.21" y="89.3" width="2.98" height="2.98"/><rect x="107.16" y="89.3" width="2.98" height="2.98"/><rect x="113.12" y="89.3" width="2.98" height="2.98"/><rect x="116.09" y="89.3" width="2.98" height="2.98"/><rect x="122.05" y="89.3" width="2.98" height="2.98"/><rect x="2.98" y="92.28" width="2.98" height="2.98"/><rect x="14.88" y="92.28" width="2.98" height="2.98"/><rect x="17.86" y="92.28" width="2.98" height="2.98"/><rect x="20.84" y="92.28" width="2.98" height="2.98"/><rect x="29.77" y="92.28" width="2.98" height="2.98"/><rect x="35.72" y="92.28" width="2.98" height="2.98"/><rect x="41.67" y="92.28" width="2.98" height="2.98"/><rect x="47.63" y="92.28" width="2.98" height="2.98"/><rect x="50.6" y="92.28" width="2.98" height="2.98"/><rect x="56.56" y="92.28" width="2.98" height="2.98"/><rect x="65.49" y="92.28" width="2.98" height="2.98"/><rect x="74.42" y="92.28" width="2.98" height="2.98"/><rect x="77.4" y="92.28" width="2.98" height="2.98"/><rect x="80.37" y="92.28" width="2.98" height="2.98"/><rect x="83.35" y="92.28" width="2.98" height="2.98"/><rect x="86.33" y="92.28" width="2.98" height="2.98"/><rect x="92.28" y="92.28" width="2.98" height="2.98"/><rect x="98.23" y="92.28" width="2.98" height="2.98"/><rect x="101.21" y="92.28" width="2.98" height="2.98"/><rect x="110.14" y="92.28" width="2.98" height="2.98"/><rect x="116.09" y="92.28" width="2.98" height="2.98"/><rect x="119.07" y="92.28" width="2.98" height="2.98"/><rect x="122.05" y="92.28" width="2.98" height="2.98"/><rect x="5.95" y="95.26" width="2.98" height="2.98"/><rect x="8.93" y="95.26" width="2.98" height="2.98"/><rect x="14.88" y="95.26" width="2.98" height="2.98"/><rect x="23.81" y="95.26" width="2.98" height="2.98"/><rect x="29.77" y="95.26" width="2.98" height="2.98"/><rect x="32.74" y="95.26" width="2.98" height="2.98"/><rect x="41.67" y="95.26" width="2.98" height="2.98"/><rect x="53.58" y="95.26" width="2.98" height="2.98"/><rect x="56.56" y="95.26" width="2.98" height="2.98"/><rect x="65.49" y="95.26" width="2.98" height="2.98"/><rect x="80.37" y="95.26" width="2.98" height="2.98"/><rect x="86.33" y="95.26" width="2.98" height="2.98"/><rect x="89.3" y="95.26" width="2.98" height="2.98"/><rect x="92.28" y="95.26" width="2.98" height="2.98"/><rect x="98.23" y="95.26" width="2.98" height="2.98"/><rect x="104.19" y="95.26" width="2.98" height="2.98"/><rect x="2.98" y="98.23" width="2.98" height="2.98"/><rect x="20.84" y="98.23" width="2.98" height="2.98"/><rect x="23.81" y="98.23" width="2.98" height="2.98"/><rect x="26.79" y="98.23" width="2.98" height="2.98"/><rect x="29.77" y="98.23" width="2.98" height="2.98"/><rect x="32.74" y="98.23" width="2.98" height="2.98"/><rect x="35.72" y="98.23" width="2.98" height="2.98"/><rect x="41.67" y="98.23" width="2.98" height="2.98"/><rect x="53.58" y="98.23" width="2.98" height="2.98"/><rect x="56.56" y="98.23" width="2.98" height="2.98"/><rect x="59.53" y="98.23" width="2.98" height="2.98"/><rect x="68.47" y="98.23" width="2.98" height="2.98"/><rect x="74.42" y="98.23" width="2.98" height="2.98"/><rect x="77.4" y="98.23" width="2.98" height="2.98"/><rect x="83.35" y="98.23" width="2.98" height="2.98"/><rect x="86.33" y="98.23" width="2.98" height="2.98"/><rect x="89.3" y="98.23" width="2.98" height="2.98"/><rect x="92.28" y="98.23" width="2.98" height="2.98"/><rect x="98.23" y="98.23" width="2.98" height="2.98"/><rect x="101.21" y="98.23" width="2.98" height="2.98"/><rect x="104.19" y="98.23" width="2.98" height="2.98"/><rect x="107.16" y="98.23" width="2.98" height="2.98"/><rect x="110.14" y="98.23" width="2.98" height="2.98"/><rect x="122.05" y="98.23" width="2.98" height="2.98"/><rect x="26.79" y="101.21" width="2.98" height="2.98"/><rect x="35.72" y="101.21" width="2.98" height="2.98"/><rect x="53.58" y="101.21" width="2.98" height="2.98"/><rect x="56.56" y="101.21" width="2.98" height="2.98"/><rect x="59.53" y="101.21" width="2.98" height="2.98"/><rect x="80.37" y="101.21" width="2.98" height="2.98"/><rect x="89.3" y="101.21" width="2.98" height="2.98"/><rect x="92.28" y="101.21" width="2.98" height="2.98"/><rect x="98.23" y="101.21" width="2.98" height="2.98"/><rect x="110.14" y="101.21" width="2.98" height="2.98"/><rect x="2.98" y="104.19" width="2.98" height="2.98"/><rect x="5.95" y="104.19" width="2.98" height="2.98"/><rect x="8.93" y="104.19" width="2.98" height="2.98"/><rect x="11.91" y="104.19" width="2.98" height="2.98"/><rect x="14.88" y="104.19" width="2.98" height="2.98"/><rect x="17.86" y="104.19" width="2.98" height="2.98"/><rect x="20.84" y="104.19" width="2.98" height="2.98"/><rect x="29.77" y="104.19" width="2.98" height="2.98"/><rect x="44.65" y="104.19" width="2.98" height="2.98"/><rect x="47.63" y="104.19" width="2.98" height="2.98"/><rect x="59.53" y="104.19" width="2.98" height="2.98"/><rect x="62.51" y="104.19" width="2.98" height="2.98"/><rect x="65.49" y="104.19" width="2.98" height="2.98"/><rect x="71.44" y="104.19" width="2.98" height="2.98"/><rect x="86.33" y="104.19" width="2.98" height="2.98"/><rect x="92.28" y="104.19" width="2.98" height="2.98"/><rect x="95.26" y="104.19" width="2.98" height="2.98"/><rect x="98.23" y="104.19" width="2.98" height="2.98"/><rect x="104.19" y="104.19" width="2.98" height="2.98"/><rect x="110.14" y="104.19" width="2.98" height="2.98"/><rect x="113.12" y="104.19" width="2.98" height="2.98"/><rect x="119.07" y="104.19" width="2.98" height="2.98"/><rect x="122.05" y="104.19" width="2.98" height="2.98"/><rect x="2.98" y="107.16" width="2.98" height="2.98"/><rect x="20.84" y="107.16" width="2.98" height="2.98"/><rect x="26.79" y="107.16" width="2.98" height="2.98"/><rect x="29.77" y="107.16" width="2.98" height="2.98"/><rect x="35.72" y="107.16" width="2.98" height="2.98"/><rect x="38.7" y="107.16" width="2.98" height="2.98"/><rect x="41.67" y="107.16" width="2.98" height="2.98"/><rect x="50.6" y="107.16" width="2.98" height="2.98"/><rect x="53.58" y="107.16" width="2.98" height="2.98"/><rect x="56.56" y="107.16" width="2.98" height="2.98"/><rect x="59.53" y="107.16" width="2.98" height="2.98"/><rect x="65.49" y="107.16" width="2.98" height="2.98"/><rect x="71.44" y="107.16" width="2.98" height="2.98"/><rect x="74.42" y="107.16" width="2.98" height="2.98"/><rect x="77.4" y="107.16" width="2.98" height="2.98"/><rect x="80.37" y="107.16" width="2.98" height="2.98"/><rect x="83.35" y="107.16" width="2.98" height="2.98"/><rect x="89.3" y="107.16" width="2.98" height="2.98"/><rect x="92.28" y="107.16" width="2.98" height="2.98"/><rect x="95.26" y="107.16" width="2.98" height="2.98"/><rect x="98.23" y="107.16" width="2.98" height="2.98"/><rect x="110.14" y="107.16" width="2.98" height="2.98"/><rect x="2.98" y="110.14" width="2.98" height="2.98"/><rect x="8.93" y="110.14" width="2.98" height="2.98"/><rect x="11.91" y="110.14" width="2.98" height="2.98"/><rect x="14.88" y="110.14" width="2.98" height="2.98"/><rect x="20.84" y="110.14" width="2.98" height="2.98"/><rect x="26.79" y="110.14" width="2.98" height="2.98"/><rect x="29.77" y="110.14" width="2.98" height="2.98"/><rect x="35.72" y="110.14" width="2.98" height="2.98"/><rect x="38.7" y="110.14" width="2.98" height="2.98"/><rect x="41.67" y="110.14" width="2.98" height="2.98"/><rect x="50.6" y="110.14" width="2.98" height="2.98"/><rect x="53.58" y="110.14" width="2.98" height="2.98"/><rect x="65.49" y="110.14" width="2.98" height="2.98"/><rect x="80.37" y="110.14" width="2.98" height="2.98"/><rect x="83.35" y="110.14" width="2.98" height="2.98"/><rect x="86.33" y="110.14" width="2.98" height="2.98"/><rect x="92.28" y="110.14" width="2.98" height="2.98"/><rect x="98.23" y="110.14" width="2.98" height="2.98"/><rect x="101.21" y="110.14" width="2.98" height="2.98"/><rect x="104.19" y="110.14" width="2.98" height="2.98"/><rect x="107.16" y="110.14" width="2.98" height="2.98"/><rect x="110.14" y="110.14" width="2.98" height="2.98"/><rect x="113.12" y="110.14" width="2.98" height="2.98"/><rect x="119.07" y="110.14" width="2.98" height="2.98"/><rect x="2.98" y="113.12" width="2.98" height="2.98"/><rect x="8.93" y="113.12" width="2.98" height="2.98"/><rect x="11.91" y="113.12" width="2.98" height="2.98"/><rect x="14.88" y="113.12" width="2.98" height="2.98"/><rect x="20.84" y="113.12" width="2.98" height="2.98"/><rect x="32.74" y="113.12" width="2.98" height="2.98"/><rect x="38.7" y="113.12" width="2.98" height="2.98"/><rect x="41.67" y="113.12" width="2.98" height="2.98"/><rect x="44.65" y="113.12" width="2.98" height="2.98"/><rect x="53.58" y="113.12" width="2.98" height="2.98"/><rect x="56.56" y="113.12" width="2.98" height="2.98"/><rect x="62.51" y="113.12" width="2.98" height="2.98"/><rect x="65.49" y="113.12" width="2.98" height="2.98"/><rect x="71.44" y="113.12" width="2.98" height="2.98"/><rect x="74.42" y="113.12" width="2.98" height="2.98"/><rect x="77.4" y="113.12" width="2.98" height="2.98"/><rect x="86.33" y="113.12" width="2.98" height="2.98"/><rect x="92.28" y="113.12" width="2.98" height="2.98"/><rect x="95.26" y="113.12" width="2.98" height="2.98"/><rect x="98.23" y="113.12" width="2.98" height="2.98"/><rect x="110.14" y="113.12" width="2.98" height="2.98"/><rect x="113.12" y="113.12" width="2.98" height="2.98"/><rect x="116.09" y="113.12" width="2.98" height="2.98"/><rect x="122.05" y="113.12" width="2.98" height="2.98"/><rect x="2.98" y="116.09" width="2.98" height="2.98"/><rect x="8.93" y="116.09" width="2.98" height="2.98"/><rect x="11.91" y="116.09" width="2.98" height="2.98"/><rect x="14.88" y="116.09" width="2.98" height="2.98"/><rect x="20.84" y="116.09" width="2.98" height="2.98"/><rect x="26.79" y="116.09" width="2.98" height="2.98"/><rect x="35.72" y="116.09" width="2.98" height="2.98"/><rect x="44.65" y="116.09" width="2.98" height="2.98"/><rect x="47.63" y="116.09" width="2.98" height="2.98"/><rect x="53.58" y="116.09" width="2.98" height="2.98"/><rect x="56.56" y="116.09" width="2.98" height="2.98"/><rect x="59.53" y="116.09" width="2.98" height="2.98"/><rect x="62.51" y="116.09" width="2.98" height="2.98"/><rect x="65.49" y="116.09" width="2.98" height="2.98"/><rect x="86.33" y="116.09" width="2.98" height="2.98"/><rect x="95.26" y="116.09" width="2.98" height="2.98"/><rect x="98.23" y="116.09" width="2.98" height="2.98"/><rect x="110.14" y="116.09" width="2.98" height="2.98"/><rect x="122.05" y="116.09" width="2.98" height="2.98"/><rect x="2.98" y="119.07" width="2.98" height="2.98"/><rect x="20.84" y="119.07" width="2.98" height="2.98"/><rect x="29.77" y="119.07" width="2.98" height="2.98"/><rect x="32.74" y="119.07" width="2.98" height="2.98"/><rect x="35.72" y="119.07" width="2.98" height="2.98"/><rect x="41.67" y="119.07" width="2.98" height="2.98"/><rect x="44.65" y="119.07" width="2.98" height="2.98"/><rect x="50.6" y="119.07" width="2.98" height="2.98"/><rect x="59.53" y="119.07" width="2.98" height="2.98"/><rect x="62.51" y="119.07" width="2.98" height="2.98"/><rect x="71.44" y="119.07" width="2.98" height="2.98"/><rect x="80.37" y="119.07" width="2.98" height="2.98"/><rect x="89.3" y="119.07" width="2.98" height="2.98"/><rect x="101.21" y="119.07" width="2.98" height="2.98"/><rect x="104.19" y="119.07" width="2.98" height="2.98"/><rect x="107.16" y="119.07" width="2.98" height="2.98"/><rect x="119.07" y="119.07" width="2.98" height="2.98"/><rect x="2.98" y="122.05" width="2.98" height="2.98"/><rect x="5.95" y="122.05" width="2.98" height="2.98"/><rect x="8.93" y="122.05" width="2.98" height="2.98"/><rect x="11.91" y="122.05" width="2.98" height="2.98"/><rect x="14.88" y="122.05" width="2.98" height="2.98"/><rect x="17.86" y="122.05" width="2.98" height="2.98"/><rect x="20.84" y="122.05" width="2.98" height="2.98"/><rect x="32.74" y="122.05" width="2.98" height="2.98"/><rect x="35.72" y="122.05" width="2.98" height="2.98"/><rect x="38.7" y="122.05" width="2.98" height="2.98"/><rect x="47.63" y="122.05" width="2.98" height="2.98"/><rect x="62.51" y="122.05" width="2.98" height="2.98"/><rect x="71.44" y="122.05" width="2.98" height="2.98"/><rect x="74.42" y="122.05" width="2.98" height="2.98"/><rect x="77.4" y="122.05" width="2.98" height="2.98"/><rect x="83.35" y="122.05" width="2.98" height="2.98"/><rect x="86.33" y="122.05" width="2.98" height="2.98"/><rect x="89.3" y="122.05" width="2.98" height="2.98"/><rect x="95.26" y="122.05" width="2.98" height="2.98"/><rect x="98.23" y="122.05" width="2.98" height="2.98"/><rect x="110.14" y="122.05" width="2.98" height="2.98"/><rect x="116.09" y="122.05" width="2.98" height="2.98"/><rect x="119.07" y="122.05" width="2.98" height="2.98"/><rect x="122.05" y="122.05" width="2.98" height="2.98"/></svg>